<?xml version="1.0" standalone="no"?>
<!DOCTYPE svg PUBLIC "-//W3C//DTD SVG 20010904//EN"
 "http://www.w3.org/TR/2001/REC-SVG-20010904/DTD/svg10.dtd">
<svg version="1.0" xmlns="http://www.w3.org/2000/svg"
 width="500.000000pt" height="500.000000pt" viewBox="0 0 500.000000 500.000000"
 preserveAspectRatio="xMidYMid meet">

<g transform="translate(0.000000,500.000000) scale(0.100000,-0.100000)"
fill="currentColor" stroke="none">
<path d="M1990 3315 l0 -34 83 -3 82 -3 0 -175 -1 -175 -70 -175 c-61 -150
-154 -389 -351 -900 -24 -63 -53 -136 -63 -162 -11 -26 -20 -51 -20 -57 0 -8
248 -11 825 -11 741 0 825 2 825 16 0 8 -25 78 -55 154 -30 76 -55 143 -55
149 0 6 17 20 39 30 121 62 177 201 131 325 -44 117 -154 186 -276 173 -65 -7
-104 -27 -174 -89 -72 -64 -143 -98 -235 -111 -92 -14 -212 0 -335 38 -47 14
-136 39 -198 55 -63 17 -118 32 -122 35 -7 4 10 57 47 143 4 9 46 12 164 12
l159 0 0 30 0 30 -145 0 c-80 0 -145 3 -145 8 0 4 26 70 57 147 l57 140 4 223
3 222 -115 0 -116 0 0 -35z m1226 -940 c54 -31 94 -105 94 -171 0 -66 -43
-141 -99 -172 l-41 -23 -20 33 c-11 18 -20 36 -20 41 0 4 -25 71 -56 148 -30
78 -53 147 -50 155 12 31 131 25 192 -11z m-233 -82 c9 -21 46 -117 83 -213
36 -96 84 -221 105 -278 22 -56 37 -107 34 -112 -8 -14 -1452 -13 -1460 0 -3
5 7 40 22 77 l29 68 162 3 162 2 0 30 0 30 -132 0 c-73 0 -140 4 -148 10 -12
7 -10 20 15 82 l30 73 158 5 c163 5 181 10 174 50 -2 12 -28 15 -151 18 l-148
3 7 27 c3 15 19 56 36 91 l29 64 58 -6 c33 -4 110 -22 173 -42 206 -64 281
-77 404 -72 126 5 187 24 275 86 30 22 58 39 61 40 3 1 13 -16 22 -36z"/>
<path d="M2732 3133 l4 -218 67 -170 c73 -184 108 -265 114 -265 15 0 43 23
43 36 0 14 -90 253 -141 376 -16 40 -19 71 -19 217 l0 170 83 3 82 3 3 33 3
32 -121 0 -121 0 3 -217z"/>
</g>
</svg>
